<svg xmlns="http://www.w3.org/2000/svg" width="256" height="256" viewBox="0 0 100 100"><rect width="100" height="100" rx="20" fill="#000"></rect><path fill="#fff" d="M13.69 77.46L13.69 77.46Q12.05 77.46 9.12 77.27L9.12 77.27L9.12 69.73Q10.68 70.20 14.77 70.20Q18.85 70.20 21.64 69.06Q24.43 67.93 26.31 65.47L26.31 65.47Q30.10 60.51 30.10 49.57L30.10 49.57L30.10 29.61L10.06 29.61L10.06 22.70L37.91 22.70L37.91 49.57Q37.91 70.74 24.59 75.74L24.59 75.74Q20.02 77.46 13.69 77.46ZM90.88 50.51L90.88 76.52Q86.39 77.70 79.02 77.70Q71.66 77.70 66.41 75.86Q61.15 74.02 57.36 70.43L57.36 70.43Q49.24 62.85 49.24 49.34L49.24 49.34Q49.24 40.51 53.46 34.10L53.46 34.10Q59.16 25.39 71.00 23.01L71.00 23.01Q74.63 22.30 79.90 22.30Q85.18 22.30 89.00 22.81L89.00 22.81L89.00 30.31Q85.64 29.45 79.41 29.45Q73.18 29.45 69.20 30.86Q65.21 32.27 62.60 34.88L62.60 34.88Q57.36 40 57.36 49.34L57.36 49.34Q57.36 58.83 62.52 64.53L62.52 64.53Q68.14 70.74 78.57 70.74L78.57 70.74Q81.00 70.74 83.07 70.55L83.07 70.55L83.07 50.51L90.88 50.51Z"></path></svg>